HIERARCHY
ROOT cup1
{
	OFFSET 0.000000 0.000000 0.000000
	CHANNELS 6 Xposition Yposition Zposition Yrotation Xrotation Zrotation
	End Site
	{
		OFFSET 0.000000 0.000000 0.000000
	}
}
MOTION
Frames: 101
Frame Time: 0.008333334
2.732605 4.900548 3.932322 22.118290 -12.740300 -13.525970 
2.726721 4.899145 3.940067 21.998990 -12.328490 -13.122530 
2.720609 4.898080 3.947550 21.945190 -11.903050 -12.734100 
2.714919 4.897754 3.956153 21.736760 -11.629550 -12.302190 
2.710875 4.898062 3.963757 21.776480 -11.405090 -11.738070 
2.706191 4.898824 3.970721 21.607860 -10.979890 -11.428010 
2.702832 4.899065 3.976467 21.670710 -10.843380 -11.014800 
2.698808 4.900137 3.982488 21.780970 -10.576290 -10.819700 
2.695573 4.900186 3.988909 21.934310 -10.276550 -10.642000 
2.693342 4.899069 3.996868 22.141590 -9.572754 -10.619380 
2.689218 4.899280 4.006475 22.460180 -9.088470 -10.270690 
2.684912 4.899120 4.017544 22.935340 -8.193115 -10.086980 
2.679618 4.899824 4.030860 23.650190 -7.135162 -9.870819 
2.673857 4.901253 4.044666 24.128250 -6.243500 -9.189789 
2.668591 4.903614 4.059877 24.674860 -5.297882 -8.695587 
2.663368 4.905819 4.074138 25.148210 -3.923340 -8.290100 
2.659521 4.908706 4.087273 25.549780 -2.993500 -7.713745 
2.656338 4.910731 4.099368 25.908050 -2.059814 -7.221832 
2.654299 4.912311 4.108405 26.157090 -1.040009 -7.037262 
2.653315 4.914692 4.114416 26.467280 -0.392212 -6.767731 
2.652672 4.917277 4.117338 26.718150 -0.287720 -6.555450 
2.652099 4.918691 4.116991 26.715150 -0.297638 -6.391144 
2.651145 4.919203 4.114530 26.413100 -0.547943 -6.227722 
2.648895 4.918796 4.109976 25.925250 -0.758423 -6.011963 
2.645279 4.919436 4.105603 25.304460 -1.242554 -5.597717 
2.640887 4.919657 4.101323 24.580370 -1.374359 -5.051758 
2.635662 4.920339 4.096844 23.780010 -2.143311 -4.016907 
2.630309 4.920000 4.091854 22.893590 -2.277222 -3.319550 
2.624109 4.919975 4.084893 21.695800 -2.523224 -2.414368 
2.618018 4.919319 4.075412 20.503510 -2.813202 -1.476654 
2.612125 4.918051 4.064072 19.135440 -3.316559 -0.585205 
2.606502 4.917518 4.050090 17.948140 -4.002045 0.202236 
2.600973 4.916077 4.033460 17.071150 -4.587524 0.858110 
2.595716 4.914869 4.015783 16.554700 -5.639832 1.373037 
2.593163 4.913382 3.996592 16.667290 -6.656494 1.648201 
2.591305 4.910759 3.977040 17.004550 -7.775299 1.628777 
2.590452 4.908661 3.958254 17.735890 -9.078400 1.515640 
2.590262 4.905956 3.940145 18.709960 -10.289030 1.189910 
2.591470 4.902436 3.922891 19.474760 -11.217710 0.818102 
2.593263 4.900198 3.906674 20.205930 -12.289550 0.177520 
2.596697 4.897806 3.892746 21.039680 -13.246950 -0.390961 
2.600320 4.895609 3.881098 21.978420 -13.974300 -0.743164 
2.604075 4.893340 3.870984 22.922980 -14.647460 -1.235107 
2.606794 4.892337 3.862934 23.658300 -15.201480 -1.488647 
2.608048 4.890634 3.856819 24.267860 -15.404170 -1.802307 
2.608376 4.890219 3.853152 24.733010 -15.704830 -1.946686 
2.609173 4.890684 3.849607 25.030970 -15.854460 -2.147491 
2.609551 4.891991 3.847937 25.281760 -16.135250 -2.168640 
2.611037 4.893653 3.847014 25.543380 -16.141450 -2.307220 
2.612669 4.896331 3.847441 25.767090 -16.035770 -2.669739 
2.613201 4.899238 3.848299 26.096250 -16.140660 -2.780212 
2.610461 4.902001 3.848705 26.109480 -16.325780 -2.718475 
2.605641 4.904254 3.849395 26.295070 -16.488190 -2.706726 
2.599855 4.906869 3.849101 26.654820 -16.846830 -2.618530 
2.594870 4.909845 3.848778 27.256490 -17.286530 -2.519470 
2.591161 4.912469 3.848326 28.015900 -17.617370 -2.678070 
2.589319 4.915422 3.847600 29.132650 -17.870730 -3.107208 
2.590692 4.920040 3.847597 30.572180 -18.261200 -3.768768 
2.592630 4.924785 3.847590 32.357780 -18.239380 -4.667908 
2.597675 4.930072 3.848537 34.409100 -18.068790 -5.806610 
2.603827 4.936466 3.852091 36.669410 -17.505710 -7.264740 
2.612097 4.943270 3.855562 38.962010 -17.253140 -8.382813 
2.622128 4.950292 3.861853 41.192300 -16.289090 -9.831238 
2.633485 4.957363 3.868902 43.510360 -15.211610 -11.039340 
2.645263 4.962911 3.877251 45.704400 -13.824100 -12.331730 
2.658303 4.967821 3.885766 48.005680 -12.388550 -13.281340 
2.669939 4.971892 3.893841 50.470010 -11.029540 -14.178530 
2.680318 4.975573 3.900028 53.005550 -9.411896 -14.873630 
2.687977 4.979080 3.904158 55.574020 -7.991913 -15.676090 
2.695036 4.982841 3.907308 58.134330 -6.899506 -16.107360 
2.701170 4.985897 3.909825 60.391910 -5.952972 -16.491580 
2.707047 4.989015 3.912369 62.349530 -4.484619 -17.158780 
2.714342 4.991827 3.914567 64.744740 -3.338013 -17.444820 
2.722102 4.994339 3.916339 67.263520 -1.914825 -18.008300 
2.731181 4.995389 3.918211 70.064490 -0.380524 -18.326230 
2.742500 4.996097 3.918921 72.844890 1.088889 -18.661380 
2.753784 4.995533 3.919847 75.553340 2.718255 -18.974240 
2.764772 4.994031 3.920253 77.960570 4.655424 -19.422700 
2.775845 4.992386 3.919224 80.203320 6.182767 -19.738160 
2.784135 4.990115 3.918040 82.292760 7.637006 -19.924710 
2.789519 4.987949 3.915754 84.208980 8.745033 -20.055690 
2.792948 4.986563 3.912781 86.144820 9.743950 -20.298000 
2.794416 4.984869 3.909505 87.914700 10.583780 -20.590820 
2.793230 4.982593 3.906204 89.724100 11.227630 -20.790130 
2.789910 4.980515 3.902453 91.572420 11.817360 -21.054170 
2.784600 4.977945 3.899061 93.483080 12.714000 -21.496060 
2.778567 4.975430 3.895813 95.522160 13.252290 -21.760160 
2.771099 4.972018 3.892792 97.860890 13.814000 -21.902890 
2.763827 4.969239 3.890022 100.140600 14.623640 -22.230500 
2.756915 4.965848 3.888244 102.412700 15.332470 -22.145630 
2.751536 4.963004 3.886518 104.600500 15.968270 -21.833500 
2.747957 4.960142 3.887132 106.266600 16.780160 -22.000610 
2.745329 4.958574 3.887472 107.695300 17.210290 -21.646640 
2.744025 4.958867 3.887368 108.464200 17.923090 -21.614170 
2.743014 4.959839 3.886718 108.816300 18.292760 -21.598050 
2.741802 4.961569 3.885797 108.896600 18.205450 -21.572240 
2.739581 4.964685 3.884557 108.694900 18.040510 -21.717320 
2.736568 4.968613 3.883433 108.171900 17.974760 -22.131990 
2.733659 4.972888 3.881670 107.891200 17.522530 -22.297210 
2.730387 4.976662 3.879776 107.367500 17.263290 -22.755280 
2.727858 4.980159 3.876243 106.835800 16.688460 -22.935060 
